<svg width="259" height="170" viewBox="0 0 259 170" fill="none" xmlns="http://www.w3.org/2000/svg">
<path d="M216.56 78.34C223.575 80.6967 229.859 84.8311 234.8 90.34C239.88 95.96 242.42 102.153 242.42 108.92C242.42 117.64 238.597 125.21 230.95 131.63C223.736 137.884 214.497 141.306 204.95 141.26H139V18H190.37C200.377 17.9449 210.058 21.5515 217.59 28.14C225.59 34.9133 229.59 42.9433 229.59 52.23C229.59 59.69 225.08 67.66 216.06 76.14L214.52 77.69C215.213 77.8638 215.894 78.0809 216.56 78.34V78.34ZM158 25.53V77.13H190.37C196.983 77.13 202.09 74.6933 205.69 69.82C209.29 64.9467 211.087 58.7833 211.08 51.33C211.08 43.8767 209.283 37.7133 205.69 32.84C202.097 27.9667 196.99 25.53 190.37 25.53H158ZM199.61 134.59C202.803 134.601 205.962 133.94 208.883 132.65C211.803 131.359 214.419 129.468 216.56 127.1C221.174 122.289 223.75 115.881 223.75 109.215C223.75 102.549 221.174 96.1411 216.56 91.33C214.419 88.9616 211.803 87.0706 208.883 85.7801C205.962 84.4896 202.803 83.8286 199.61 83.84H158V134.59H199.61Z" fill="#DDBEAB"/>
<path d="M253.07 138.62C236.27 151 217.087 157.577 195.52 158.35C194.37 158.511 193.211 158.588 192.05 158.58C170.25 158.885 148.798 153.098 130.11 141.87C121.243 136.717 113.16 130.318 106.11 122.87C98.71 115.13 93.0867 108.24 89.24 102.2C82.28 91.1867 74.4867 77.63 65.86 61.53L116.02 7.2L122.49 0H103.3L96.83 7L28.19 81.73L25.42 84.53L25.19 0.00999451H0V166.25H25.42L25.19 105.87C25.4024 105.597 25.5587 105.284 25.65 104.95L48.07 80.53L49.22 79.36C58.4733 95.62 65.4067 106.69 70.02 112.57C72.3333 115.67 74.3 118.223 75.92 120.23C77.54 122.237 79.8733 124.947 82.92 128.36C85.6102 131.378 88.4645 134.246 91.47 136.95C94.09 139.27 97.48 141.98 101.64 145.08C105.536 148.013 109.671 150.615 114 152.86C118.08 154.947 122.973 157.113 128.68 159.36C134.349 161.592 140.183 163.377 146.13 164.7C152.063 166.033 158.803 167.153 166.35 168.06C174.247 169.012 182.196 169.48 190.15 169.46C192 169.46 193.85 169.38 195.7 169.23C208.514 168.726 221.16 166.136 233.14 161.56C242.18 158.112 250.618 153.256 258.14 147.17L253.07 138.62Z" fill="#DDBEAB"/>
</svg>
