<svg id="Camada_1" data-name="Camada 1" xmlns="http://www.w3.org/2000/svg" viewBox="0 0 595.64 276.88"><defs><style>.cls-1{fill:#ddbeab;}</style></defs><path class="cls-1" d="M189.51,226.81h4.13v.78h-3.22V230h2.73v.78h-2.73V234h-.91Z"/><path class="cls-1" d="M196.89,230.38c0-2.3,1.26-3.7,3.06-3.7s3.06,1.4,3.06,3.7-1.26,3.76-3.06,3.76S196.89,232.69,196.89,230.38Zm5.18,0c0-1.79-.84-2.89-2.12-2.89s-2.12,1.1-2.12,2.89.84,3,2.12,3S202.07,232.17,202.07,230.38Z"/><path class="cls-1" d="M208.29,227.59h-2.17v-.78h5.24v.78H209.2V234h-.91Z"/><path class="cls-1" d="M214.48,230.38c0-2.3,1.26-3.7,3.06-3.7s3.06,1.4,3.06,3.7-1.26,3.76-3.06,3.76S214.48,232.69,214.48,230.38Zm5.18,0c0-1.79-.84-2.89-2.12-2.89s-2.12,1.1-2.12,2.89.84,3,2.12,3S219.66,232.17,219.66,230.38Z"/><path class="cls-1" d="M224.23,230.42c0-2.32,1.39-3.74,3.29-3.74a2.75,2.75,0,0,1,2.06.89l-.5.59a2,2,0,0,0-1.54-.67c-1.44,0-2.37,1.11-2.37,2.9s.85,2.94,2.38,2.94a1.92,1.92,0,0,0,1.29-.42V231h-1.52v-.76h2.35v3a3.05,3.05,0,0,1-2.21.84C225.58,234.14,224.23,232.75,224.23,230.42Z"/><path class="cls-1" d="M233.89,226.81h2.24c1.46,0,2.51.53,2.51,2s-1,2.13-2.51,2.13H234.8v3h-.91Zm2.11,3.41c1.11,0,1.73-.45,1.73-1.38s-.62-1.28-1.73-1.28h-1.2v2.66Zm-.05.49.72-.47,2.18,3.76h-1Z"/><path class="cls-1" d="M244,226.81h1l2.43,7.19h-1l-1.25-4c-.26-.81-.48-1.59-.71-2.43h-.05c-.22.84-.45,1.62-.71,2.43l-1.26,4h-.93Zm-1.15,4.27h3.29v.73h-3.29Z"/><path class="cls-1" d="M251,226.81h4.13v.78h-3.21V230h2.73v.78h-2.73V234H251Z"/><path class="cls-1" d="M258.86,226.81h.92V234h-.92Z"/><path class="cls-1" d="M265.72,226.81h1l2.43,7.19h-1L267,230c-.25-.81-.48-1.59-.71-2.43h-.05c-.22.84-.45,1.62-.71,2.43l-1.26,4h-.93Zm-1.15,4.27h3.29v.73h-3.29Z"/><path class="cls-1" d="M277.34,226.81h4.13v.78h-3.22V230H281v.78h-2.73V234h-.91Z"/><path class="cls-1" d="M285.24,226.81h4.12v.78h-3.21v2.25h2.71v.78h-2.71v2.61h3.32V234h-4.23Z"/><path class="cls-1" d="M293.5,226.81h.91V234h-.91Z"/><path class="cls-1" d="M300.37,227.59H298.2v-.78h5.24v.78h-2.16V234h-.91Z"/><path class="cls-1" d="M308.27,226.81h1l2.42,7.19h-1l-1.25-4c-.26-.81-.49-1.59-.72-2.43h0c-.22.84-.45,1.62-.71,2.43l-1.26,4h-.93Zm-1.15,4.27h3.3v.73h-3.3Z"/><path class="cls-1" d="M319.89,226.81h2.05c1.6,0,2.68.55,2.68,2.12s-1.07,2.22-2.64,2.22H320.8V234h-.91Zm2,3.6c1.25,0,1.84-.46,1.84-1.48s-.63-1.37-1.89-1.37h-1v2.85Z"/><path class="cls-1" d="M329.5,226.81h1L333,234h-1l-1.25-4c-.26-.81-.49-1.59-.72-2.43h0c-.22.84-.45,1.62-.71,2.43L328,234h-.93Zm-1.14,4.27h3.29v.73h-3.29Z"/><path class="cls-1" d="M336.43,226.81h2.25c1.45,0,2.5.53,2.5,2s-1.05,2.13-2.5,2.13h-1.34v3h-.91Zm2.12,3.41c1.11,0,1.72-.45,1.72-1.38s-.61-1.28-1.72-1.28h-1.21v2.66Zm-.05.49.71-.47L341.4,234h-1Z"/><path class="cls-1" d="M346.58,226.81h1L350,234h-1l-1.25-4c-.26-.81-.49-1.59-.72-2.43h0c-.22.84-.45,1.62-.71,2.43l-1.26,4h-.93Zm-1.15,4.27h3.3v.73h-3.3Z"/><path class="cls-1" d="M358.2,226.81H360c2.2,0,3.39,1.29,3.39,3.57S362.19,234,360,234H358.2Zm1.73,6.44c1.67,0,2.5-1.05,2.5-2.87s-.83-2.82-2.5-2.82h-.82v5.69Z"/><path class="cls-1" d="M367.39,231v-4.22h.91v4.25c0,1.73.73,2.27,1.67,2.27s1.69-.54,1.69-2.27v-4.25h.88V231c0,2.31-1.11,3.11-2.57,3.11S367.39,233.34,367.39,231Z"/><path class="cls-1" d="M377,226.81h2.24c1.46,0,2.51.53,2.51,2s-1.05,2.13-2.51,2.13h-1.33v3H377Zm2.11,3.41c1.12,0,1.73-.45,1.73-1.38s-.61-1.28-1.73-1.28h-1.2v2.66Zm-.05.49.72-.47,2.18,3.76h-1Z"/><path class="cls-1" d="M387.12,226.81h1l2.43,7.19h-1l-1.25-4c-.25-.81-.48-1.59-.71-2.43h-.05c-.22.84-.45,1.62-.71,2.43l-1.26,4h-.93ZM386,231.08h3.29v.73H386Z"/><path class="cls-1" d="M394.05,226.81h2.24c1.46,0,2.5.53,2.5,2s-1,2.13-2.5,2.13H395v3h-.91Zm2.11,3.41c1.11,0,1.72-.45,1.72-1.38s-.61-1.28-1.72-1.28H395v2.66Zm-.05.49.71-.47L399,234h-1Z"/><path class="cls-1" d="M236,119l1.19,2a21.42,21.42,0,0,1-5.86,3.38,27.41,27.41,0,0,1-8.8,1.8c-.43,0-.87.06-1.3.06a45.59,45.59,0,0,1-5.6-.33c-1.77-.22-3.36-.48-4.75-.79a27.3,27.3,0,0,1-4.1-1.26,37.5,37.5,0,0,1-3.45-1.52,19.85,19.85,0,0,1-2.9-1.83c-1-.73-1.78-1.36-2.39-1.91a25.58,25.58,0,0,1-2-2c-.73-.8-1.28-1.44-1.66-1.91s-.84-1.07-1.39-1.8a72.77,72.77,0,0,1-4.88-7.8l-.27.27v0l-5.27,5.73a.87.87,0,0,1-.11.22l.05,14.19h-6V86.41h5.92l.05,19.86.65-.66L199.24,88l1.53-1.63h4.5l-1.52,1.69L192,100.87q3,5.67,5.48,9.54a33.42,33.42,0,0,0,4,4.86,25.15,25.15,0,0,0,5.65,4.48,27.5,27.5,0,0,0,14.55,3.92,5.39,5.39,0,0,0,.82,0A23.7,23.7,0,0,0,236,119Zm-13.52-4.53a15.38,15.38,0,0,1-12.77-7,12.75,12.75,0,0,1,0-14.08,15.26,15.26,0,0,1,5.57-5.16,14.88,14.88,0,0,1,7.2-1.88,14.14,14.14,0,0,1,9.93,4L234,87.28h3v26.14h-4.5l-.06-3A14.37,14.37,0,0,1,222.44,114.45Zm-.93-25.59a9.34,9.34,0,0,0-6.76,4.39,12.78,12.78,0,0,0-1.93,8.65,11.74,11.74,0,0,0,3.78,7.72,9,9,0,0,0,7.52,2.38,8.58,8.58,0,0,0,5.51-3,12,12,0,0,0,2.8-6.11,15.2,15.2,0,0,0,.11-4,16.3,16.3,0,0,0-.55-2.56,10.91,10.91,0,0,0-4-5.84A8.88,8.88,0,0,0,221.51,88.86Z"/><path class="cls-1" d="M277.45,101.36a16.13,16.13,0,0,1-.76,5,13.42,13.42,0,0,1-2.33,4.28,12.79,12.79,0,0,1-3.92,3.19l-1,.55,6.14,9.27,1,1.59H269.3l-.32-.49-4.62-7.37a3,3,0,0,0-2.77-1.47H251.16v9.33H245.3V86.41h15.26a18.32,18.32,0,0,1,8.28,1.93,16.55,16.55,0,0,1,6.25,5.32,12.5,12.5,0,0,1,2.36,7.26ZM260.56,114a9.8,9.8,0,0,0,8-3.61,13.72,13.72,0,0,0,3-9v-.49a15.4,15.4,0,0,0-1.27-6.38A10.6,10.6,0,0,0,266.45,90a10.29,10.29,0,0,0-5.89-1.69h-9.4V114Z"/><path class="cls-1" d="M321.44,121.38s.06-.07.16-.11l1.85,1.48a20.8,20.8,0,0,1-4.29,2.23,19.34,19.34,0,0,1-3.91,1,19.91,19.91,0,0,1-2.93.21,19.19,19.19,0,0,1-2.12-.11,33.92,33.92,0,0,1-4.83-.76c-.11,0-.55-.14-1.31-.33a32.45,32.45,0,0,0-7-1.09h-.44a65.43,65.43,0,0,0-6.6.41,23.28,23.28,0,0,0-5.56,1.07V86.13h5.86l.06,36a30.16,30.16,0,0,1,6.24-.71H297a41.13,41.13,0,0,1,9.18,1.58,24.12,24.12,0,0,0,4.35.71c.72.07,1.43.11,2.11.11a19.85,19.85,0,0,0,2.12-.11A17.4,17.4,0,0,0,321.44,121.38Zm20.48,2.24.54,1.36h-6.41l-.27-.71-2.44-6.22-.6-1.41H312.32l-.6,1.41L311,120l-.27.66h-2.61l.6-1.37,12.44-30.93.86-2.24h5.27l.22.65Zm-28.62-9.39h18.57l-.54-1.36-8.69-22.26-9.24,23.24Z"/><path class="cls-1" d="M257.31,156a13.67,13.67,0,0,1,5.78,3.82,8.63,8.63,0,0,1,2.42,5.9,9.18,9.18,0,0,1-3.64,7.2,12.48,12.48,0,0,1-8.26,3H232.7V136.86H249a13,13,0,0,1,8.63,3.22,9.71,9.71,0,0,1,3.8,7.64c0,2.37-1.43,4.89-4.29,7.59l-.48.49C257,155.9,257.23,156,257.31,156Zm-18.58-16.75v16.37H249a5.67,5.67,0,0,0,4.86-2.32,10.91,10.91,0,0,0,0-11.73,5.7,5.7,0,0,0-4.86-2.32Zm13.2,34.6a7.21,7.21,0,0,0,5.38-2.38,8.2,8.2,0,0,0,0-11.35,7.23,7.23,0,0,0-5.38-2.37h-13.2v16.1Z"/><path class="cls-1" d="M337.52,171.62s.09,0,.17,0a2.94,2.94,0,0,1,.27.22c.11.09.22.2.35.32s.24.26.35.38l.3.36a2.25,2.25,0,0,0,.35.33A38.13,38.13,0,0,1,327,177.4a76,76,0,0,1-8.45.69,49.09,49.09,0,0,1-8.39-.41,43.25,43.25,0,0,1-13.36-4.48,34.2,34.2,0,0,1-9.61-7.47h-9.34v10.15H272V137h3.75V137h9.83a18,18,0,0,1,8.06,1.88,16.17,16.17,0,0,1,6.19,5.18,12,12,0,0,1,2.37,7.12v.28a11.4,11.4,0,0,1-2.64,7.17,18.7,18.7,0,0,1-6.49,5.27,32.57,32.57,0,0,0,8.58,6.65,40.11,40.11,0,0,0,12.22,4.15A39.22,39.22,0,0,0,326,175,35.12,35.12,0,0,0,337.52,171.62Zm-52-8.18a9.7,9.7,0,0,0,7.79-3.42,12.68,12.68,0,0,0,2.91-8.53v-.28a12.71,12.71,0,0,0-2.91-8.54,9.72,9.72,0,0,0-7.79-3.41h-7.71v24.18Zm38.5,2.83a15.11,15.11,0,0,1-6.89-1.66,14.16,14.16,0,0,1-5.35-4.56,10.59,10.59,0,0,1-2-6.22V136.92h6v16.91a10,10,0,0,0,2.2,6.63,7.51,7.51,0,0,0,6.11,2.65h2.61a9.83,9.83,0,0,0,3.75-.74,10,10,0,0,0,3.09-2,9.08,9.08,0,0,0,2.83-6.58V136.92h2.33v16.91a11.64,11.64,0,0,1-3.83,8.81,13,13,0,0,1-9.26,3.63Z"/><path class="cls-1" d="M377.6,137.08H380V176h-3.58L349,146.47V176h-2.39v-38.9h2.55l28.4,30.56Z"/><path class="cls-1" d="M417.36,143.35q4.17,4.92,3.47,22.38l-.21,10.47-5.65.11-.06-3.22s0,.09-.11.14a1.22,1.22,0,0,0-.16.14,11,11,0,0,1-3.18,2.26,12.86,12.86,0,0,1-3.44,1.06,32.52,32.52,0,0,1-4.35.33H403a23.27,23.27,0,0,1-7.14-1.36,14.34,14.34,0,0,1-5.56-3.39,11,11,0,0,1-3.32-9.11,12.43,12.43,0,0,1,5.38-8.59A18.88,18.88,0,0,1,403.94,151a17.06,17.06,0,0,1,6,.93,14,14,0,0,1,4.51,2.84l.65.6v-1q-.33-14.13-11.95-14.35a11.41,11.41,0,0,0-3.26.36,11.26,11.26,0,0,0-2.74,1.06,15.11,15.11,0,0,0-2.25,1.56,17.19,17.19,0,0,0-1.82,1.71,20.15,20.15,0,0,0-1.39,1.75L388,144.23a18.94,18.94,0,0,1,15.15-7.09,21.65,21.65,0,0,1,5.54.65,16.49,16.49,0,0,1,4.65,2A17.76,17.76,0,0,1,417.36,143.35Zm-21.48,28a12.19,12.19,0,0,0,16.13,0,9.89,9.89,0,0,0,0-14.82,12.1,12.1,0,0,0-16.13,0,9.89,9.89,0,0,0,0,14.82Z"/><path class="cls-1" d="M176.61,64.22a.06.06,0,0,1,.07-.07h5.47s.07,0,.07.07v.38s0,.06-.07.06H178s-.06,0-.06.07v3.88s0,.07.06.07h3.24s.07,0,.07,0v.39a.07.07,0,0,1-.07.07h-3.23s-.07,0-.07,0v4.24a.07.07,0,0,0,.07.07h4.1s.07,0,.07,0V74a.06.06,0,0,1-.07.07h-5.47a.07.07,0,0,1-.07-.07Z"/><path class="cls-1" d="M190.88,71.37a.05.05,0,0,1,.08,0,3.27,3.27,0,0,0,3.17,2.31,2.54,2.54,0,0,0,1.81-.64,1.4,1.4,0,0,0,.36-1.27,2.17,2.17,0,0,0-.73-1.11,10.32,10.32,0,0,0-2-1.26,6.12,6.12,0,0,1-1.86-1.4,2.44,2.44,0,0,1-.6-2.18c.34-1.23,1.89-1.87,3.08-1.87a3,3,0,0,1,2.93,2.31s0,0,0,.07l-.08,0s-.07,0-.09,0a2.78,2.78,0,0,0-2.62-1.9,1.9,1.9,0,0,0-2,1.25,1.46,1.46,0,0,0,.22,1.06,3.31,3.31,0,0,0,.76.78,13.45,13.45,0,0,0,1.83,1.07,7,7,0,0,1,1.71,1.25,2.75,2.75,0,0,1,.76,1.93,2.51,2.51,0,0,1-1.36,2,3.62,3.62,0,0,1-1.76.41,3.58,3.58,0,0,1-3.83-2.69s0-.07,0-.07S190.83,71.41,190.88,71.37Z"/><path class="cls-1" d="M205,64.22s0-.07.06-.07h1.83l6.55,0c.05,0,.08,0,.08.08v.31s0,0-.08,0H210s-.07,0-.07.06c0,1.88,0,7,0,9.23V74s0,.07-.05.07h-1.24a.06.06,0,0,1-.07-.07V64.68s0-.07-.06-.07H205.1s-.06,0-.06,0Z"/><path class="cls-1" d="M223.9,64.15s0,0,0,.07v6c0,2.5,1.16,3.47,2.67,3.47s2.78-1.16,2.78-3.48v-6s0-.07,0-.07h.38s.07,0,.07.07v5.89c0,2.77-1.49,4.09-3.56,4.09s-3.75-1.25-3.75-4.15V64.22s0-.07.07-.07Zm2.27-3.6a.62.62,0,0,1,.59-.4.5.5,0,0,1,.41.88l-1.67,1.76h-.36Z"/><path class="cls-1" d="M242.36,64.15c3,0,5.2,1.79,5.2,4.95a4.83,4.83,0,0,1-5.17,5h-2.84a.07.07,0,0,1-.07-.07V64.22a.06.06,0,0,1,.07-.07Zm-1.51,9.33a.07.07,0,0,0,.07.07h1.84c1.88,0,3.37-1.43,3.41-3.74.07-2.56-1.19-5.15-3.89-5.15h-1.36a.06.06,0,0,0-.07.07Z"/><path class="cls-1" d="M256.72,64.2s0,0,.07,0H258s.07,0,.07,0V74s0,.07-.06.07h-1.31Z"/><path class="cls-1" d="M272.7,63.88a5.16,5.16,0,1,1-5.41,4.95A5,5,0,0,1,272.7,63.88Zm3.45,6.21c.22-3.11-.92-5.48-3.5-5.75-1.92-.18-3.58,1.18-3.88,3.76s.92,5.41,3.51,5.7C274.19,74,276,72.67,276.15,70.09Z"/><path class="cls-1" d="M392.86,90.2a.5.5,0,0,1-.5-.51,2.2,2.2,0,0,0-2.22-2.22.51.51,0,1,1,0-1h0a2.19,2.19,0,0,0,1.57-.65,2.24,2.24,0,0,0,.65-1.6.5.5,0,0,1,.5-.5h0a.5.5,0,0,1,.5.5,2.27,2.27,0,0,0,.66,1.6,2.22,2.22,0,0,0,1.58.65h0a.51.51,0,0,1,0,1,2.21,2.21,0,0,0-2.24,2.22A.5.5,0,0,1,392.86,90.2Zm-1-3.25a3.26,3.26,0,0,1,1,1,3.12,3.12,0,0,1,1-1,3.45,3.45,0,0,1-.56-.45,3.93,3.93,0,0,1-.44-.55,3.26,3.26,0,0,1-.43.55A2.87,2.87,0,0,1,391.88,87Z"/><path class="cls-1" d="M353.44,82.26h-2.86a.51.51,0,0,1,0-1h2.86a.51.51,0,0,1,0,1Z"/><path class="cls-1" d="M352,83.69a.5.5,0,0,1-.5-.5V80.31a.5.5,0,0,1,.5-.5.5.5,0,0,1,.51.5v2.88A.5.5,0,0,1,352,83.69Z"/><path class="cls-1" d="M371.85,96h-3.1a.5.5,0,0,1-.5-.5.5.5,0,0,1,.5-.51h3.1a.5.5,0,0,1,.5.51A.5.5,0,0,1,371.85,96Z"/><path class="cls-1" d="M370.3,97.51a.5.5,0,0,1-.5-.51V93.89a.5.5,0,1,1,1,0V97A.5.5,0,0,1,370.3,97.51Z"/><path class="cls-1" d="M384.92,110.54a.47.47,0,0,1-.35-.15l-2.19-2.2a.51.51,0,0,1,0-.72.51.51,0,0,1,.71,0l2.19,2.2a.51.51,0,0,1-.36.87Z"/><path class="cls-1" d="M382.73,110.54a.47.47,0,0,1-.35-.15.51.51,0,0,1,0-.72l2.19-2.2a.51.51,0,0,1,.71,0,.51.51,0,0,1,0,.72l-2.19,2.2A.51.51,0,0,1,382.73,110.54Z"/><path class="cls-1" d="M364.24,125.67a.47.47,0,0,1-.35-.15l-3.38-3.39a.5.5,0,0,1,.71-.71l3.38,3.39a.5.5,0,0,1,0,.71A.51.51,0,0,1,364.24,125.67Z"/><path class="cls-1" d="M360.87,125.67a.51.51,0,0,1-.36-.15.5.5,0,0,1,0-.71l3.38-3.39a.5.5,0,0,1,.71.71l-3.38,3.39A.47.47,0,0,1,360.87,125.67Z"/></svg>